<svg xmlns="http://www.w3.org/2000/svg" width="33.487" height="29.766" viewBox="0 0 33.487 29.766"><defs><style>.a{fill:#fff;}</style></defs><path class="a" d="M4.144,18.6H21.187l-.381,1.86H5.2a1.4,1.4,0,0,0-1.361,1.7l.321,1.411a3.257,3.257,0,1,0,3.7.6H20.047a3.256,3.256,0,1,0,3.9-.5L28.029,3.721h4.063a1.4,1.4,0,0,0,1.4-1.4V1.4a1.4,1.4,0,0,0-1.4-1.4H26.131a1.4,1.4,0,0,0-1.367,1.116l-.533,2.605H1.4a1.4,1.4,0,0,0-1.361,1.7L2.784,17.518A1.4,1.4,0,0,0,4.144,18.6ZM9.767,9.767h2.791V7.442a.93.93,0,0,1,.93-.93h.93a.93.93,0,0,1,.93.93V9.767h2.791a.93.93,0,0,1,.93.93v.93a.93.93,0,0,1-.93.93H15.348v2.325a.93.93,0,0,1-.93.93h-.93a.93.93,0,0,1-.93-.93V12.558H9.767a.93.93,0,0,1-.93-.93V10.7A.93.93,0,0,1,9.767,9.767Z"/></svg>