<svg xmlns="http://www.w3.org/2000/svg" width="31.5" height="36" viewBox="0 0 31.5 36"><defs><style>.a{fill:#c3e4ff;}</style></defs><g transform="translate(-2.25)"><path class="a" d="M13.5,26.859H11.953c-1.73,0-2.039-.253-2.377-.675C9.19,25.7,9,24.841,9,22.373V10.645a4.5,4.5,0,1,0-4.5,0V22.373c0,3.263.26,4.978,1.554,6.609,1.4,1.765,3.164,2.517,5.9,2.517H13.5V36l6.75-6.75L13.5,22.5ZM6.75,3.938A2.813,2.813,0,1,1,3.938,6.75,2.812,2.812,0,0,1,6.75,3.938Z"/><path class="a" d="M31.5,25.355V13.416c0-3.262-.26-4.978-1.554-6.609-1.4-1.765-3.164-2.447-5.9-2.447H22.5V0L15.75,6.75,22.5,13.5V9h1.547c1.73,0,2.039.183,2.377.6.387.485.577,1.343.577,3.811V25.355a4.5,4.5,0,1,0,4.5,0Zm-2.25,6.708a2.813,2.813,0,1,1,2.813-2.812A2.812,2.812,0,0,1,29.25,32.063Z"/></g></svg>